<svg width="48" height="48" viewBox="0 0 48 48" fill="none" xmlns="http://www.w3.org/2000/svg">
<path d="M23.4713 29.4262C25.3558 27.8423 26.7075 25.717 27.3431 23.3387C27.9788 20.9604 27.8676 18.4442 27.0246 16.1312C26.1817 13.8183 24.6477 11.8206 22.6309 10.409C20.614 8.9974 18.2118 8.24026 15.75 8.24026C13.2883 8.24026 10.8861 8.9974 8.86922 10.409C6.85236 11.8206 5.31843 13.8183 4.47548 16.1312C3.63252 18.4442 3.52133 20.9604 4.15696 23.3387C4.7926 25.717 6.14432 27.8423 8.0288 29.4262C5.08614 30.7568 2.53602 32.8233 0.624423 35.4262C0.271354 35.9074 0.123869 36.509 0.214414 37.0989C0.304959 37.6888 0.626117 38.2185 1.10724 38.5716C1.58836 38.9246 2.19003 39.0721 2.77989 38.9816C3.36975 38.891 3.89948 38.5699 4.25255 38.0887C5.57581 36.2815 7.30648 34.8116 9.30412 33.7984C11.3018 32.7852 13.5101 32.2572 15.75 32.2572C17.99 32.2572 20.1983 32.7852 22.196 33.7984C24.1936 34.8116 25.9243 36.2815 27.2475 38.0887C27.6006 38.5701 28.1304 38.8915 28.7205 38.9822C29.3105 39.073 29.9124 38.9256 30.3938 38.5725C30.8752 38.2194 31.1966 37.6896 31.2873 37.0996C31.378 36.5095 31.2306 35.9076 30.8775 35.4262C28.9648 32.8236 26.4142 30.7573 23.4713 29.4262ZM8.25005 20.25C8.25005 18.7666 8.68991 17.3166 9.51403 16.0832C10.3381 14.8499 11.5095 13.8886 12.8799 13.3209C14.2504 12.7532 15.7584 12.6047 17.2132 12.8941C18.6681 13.1835 20.0045 13.8978 21.0533 14.9467C22.1022 15.9956 22.8165 17.332 23.1059 18.7868C23.3953 20.2417 23.2468 21.7497 22.6791 23.1201C22.1115 24.4906 21.1502 25.6619 19.9168 26.486C18.6835 27.3101 17.2334 27.75 15.75 27.75C13.7609 27.75 11.8533 26.9598 10.4467 25.5533C9.04022 24.1468 8.25005 22.2391 8.25005 20.25ZM46.8938 38.5631C46.6556 38.7382 46.3853 38.8645 46.0982 38.9351C45.8111 39.0056 45.513 39.0188 45.2208 38.9741C44.9286 38.9293 44.6481 38.8274 44.3954 38.6742C44.1426 38.5211 43.9224 38.3195 43.7475 38.0812C42.421 36.2774 40.6897 34.8101 38.6927 33.7974C36.6958 32.7846 34.4891 32.2546 32.25 32.25C31.6533 32.25 31.081 32.0129 30.6591 31.591C30.2371 31.169 30 30.5967 30 30C30 29.4033 30.2371 28.831 30.6591 28.409C31.081 27.9871 31.6533 27.75 32.25 27.75C33.3161 27.7481 34.3694 27.519 35.3399 27.0779C36.3104 26.6368 37.1757 25.9939 37.8781 25.1921C38.5806 24.3902 39.104 23.4479 39.4135 22.4278C39.7231 21.4077 39.8116 20.3334 39.6732 19.2764C39.5348 18.2194 39.1727 17.204 38.611 16.298C38.0493 15.392 37.3009 14.6162 36.4157 14.0222C35.5305 13.4282 34.5288 13.0297 33.4775 12.8534C32.4262 12.677 31.3494 12.7268 30.3188 12.9994C30.031 13.0826 29.7294 13.1076 29.4318 13.0727C29.1342 13.0379 28.8465 12.9439 28.5857 12.7964C28.3249 12.6489 28.0962 12.4508 27.913 12.2137C27.7298 11.9766 27.5958 11.7052 27.5189 11.4156C27.442 11.1261 27.4237 10.824 27.4651 10.5272C27.5064 10.2305 27.6067 9.94497 27.7599 9.68747C27.9131 9.42997 28.1162 9.20567 28.3573 9.02773C28.5984 8.84979 28.8726 8.72179 29.1638 8.65125C31.799 7.953 34.5935 8.17286 37.0871 9.27463C39.5807 10.3764 41.6249 12.2944 42.883 14.7129C44.1411 17.1314 44.5383 19.9062 44.009 22.5805C43.4798 25.2548 42.0557 27.6692 39.9713 29.4262C42.914 30.7568 45.4641 32.8233 47.3757 35.4262C47.7262 35.9067 47.8723 36.5063 47.782 37.0941C47.6917 37.6819 47.3724 38.2101 46.8938 38.5631Z" fill="#4CAF4F"/>
</svg>
