<svg width="441" height="328" viewBox="0 0 441 328" fill="none" xmlns="http://www.w3.org/2000/svg">
<path d="M220.5 328C314.947 328 391.511 323.538 391.511 318.034C391.511 312.53 314.947 308.068 220.5 308.068C126.053 308.068 49.489 312.53 49.489 318.034C49.489 323.538 126.053 328 220.5 328Z" fill="#F5F5F5"/>
<path d="M308.038 95.4612L299.289 91.9396C299.289 91.9396 287.744 112.955 284.436 114.02C279.938 115.464 270.624 119.478 265.103 120.183C264.353 121.063 263.127 123.801 263.242 124.796C270.659 127.27 286.959 123.986 290.451 121.398C298.398 115.525 308.038 95.4612 308.038 95.4612Z" fill="#E58A7B"/>
<path d="M310.729 90.6807C312.36 96.6938 303.523 108.79 303.523 108.79L291.942 102.311C291.942 102.311 294.112 97.3365 296.758 92.2742C301 84.0953 308.868 83.8224 310.729 90.6807Z" fill="#4CAF4F"/>
<path opacity="0.2" d="M310.729 90.6807C312.36 96.6938 303.523 108.79 303.523 108.79L291.942 102.311C291.942 102.311 294.112 97.3365 296.758 92.2742C301 84.0953 308.868 83.8224 310.729 90.6807Z" fill="black"/>
<path opacity="0.2" d="M296.537 104.899L301.097 107.452L301.9 93.4803C299.245 95.5141 297.375 101.642 296.537 104.899Z" fill="black"/>
<path d="M303.108 86.1554C303.108 86.1554 294.094 106.176 299.351 143.452H334.869C335.433 138.011 333.564 111.458 340.328 85.8209C336.432 85.0608 332.49 84.5579 328.527 84.3154C323.501 84.0247 318.462 84.0247 313.436 84.3154C309.952 84.6685 306.5 85.2836 303.108 86.1554Z" fill="#4CAF4F"/>
<path opacity="0.2" d="M303.108 86.1554C303.108 86.1554 294.094 106.176 299.351 143.452H334.869C335.433 138.011 333.564 111.458 340.328 85.8209C336.432 85.0608 332.49 84.5579 328.527 84.3154C323.501 84.0247 318.462 84.0247 313.436 84.3154C309.952 84.6685 306.5 85.2836 303.108 86.1554Z" fill="black"/>
<g style="mix-blend-mode:multiply">
<path d="M294.87 318.826C294.817 319.777 308.285 320.543 324.946 320.543C341.607 320.543 355.172 319.777 355.225 318.826C355.278 317.875 341.819 317.118 325.149 317.118C308.479 317.118 294.932 317.884 294.87 318.826Z" fill="#E8ECF1"/>
</g>
<path d="M318.579 293.843L312.279 296.277L317.706 310.27L324.005 307.836L318.579 293.843Z" fill="#E58A7B"/>
<path d="M346.67 312.056H340.029L337.594 296.711H344.236L346.67 312.056Z" fill="#E58A7B"/>
<path d="M339.57 311.29H347.032C347.161 311.29 347.286 311.337 347.385 311.421C347.483 311.504 347.549 311.62 347.57 311.748L348.531 317.638C348.551 317.786 348.539 317.936 348.496 318.079C348.453 318.221 348.38 318.353 348.281 318.465C348.182 318.577 348.061 318.667 347.924 318.727C347.788 318.788 347.64 318.819 347.49 318.817C344.888 318.773 343.636 318.615 340.355 318.615C338.335 318.615 334.181 318.826 331.376 318.826C328.571 318.826 328.386 316.079 329.542 315.824C334.728 314.706 336.739 313.183 338.467 311.704C338.772 311.437 339.164 311.29 339.57 311.29Z" fill="#263238"/>
<path d="M317.52 309.019L324.576 306.959C324.702 306.923 324.836 306.932 324.956 306.983C325.077 307.034 325.176 307.125 325.237 307.24L327.883 312.523C327.945 312.657 327.976 312.802 327.975 312.95C327.975 313.097 327.942 313.243 327.879 313.376C327.816 313.509 327.724 313.627 327.611 313.722C327.497 313.816 327.365 313.885 327.222 313.923C324.655 314.627 322.935 315.058 319.725 315.991C317.511 316.634 315.253 317.682 313.066 318.377C311.549 318.862 307.986 318.879 306.142 318.879C303.417 318.879 302.808 316.009 303.981 315.877C306.936 315.551 307.333 315.701 308.965 314.882C311.634 313.717 314.054 312.049 316.091 309.97C316.475 309.533 316.968 309.205 317.52 309.019Z" fill="#263238"/>
<path d="M266.214 120.148L258.911 117.093L255.903 125.175C258.897 125.63 261.942 125.63 264.935 125.175L266.214 120.148Z" fill="#E58A7B"/>
<path d="M253.478 116.881L253.284 122.252L255.903 125.157L258.911 117.075L253.478 116.881Z" fill="#E58A7B"/>
<path d="M319.443 295.031L313.124 297.467L315.922 304.702L322.242 302.267L319.443 295.031Z" fill="#CF6F64"/>
<path d="M344.236 296.711H337.594L338.856 304.625H345.497L344.236 296.711Z" fill="#CF6F64"/>
<path opacity="0.2" d="M298.222 133.371C298.354 134.965 298.504 136.593 298.698 138.266L325.105 129.709C329.229 128.489 332.813 125.902 335.266 122.375C335.372 120.024 335.504 117.55 335.707 114.971C335.795 113.721 335.901 112.435 336.016 111.132C336.13 109.829 336.289 108.385 336.457 106.994L298.222 133.371Z" fill="black"/>
<path d="M306.848 104.494L305.966 104.388C306.486 99.9865 309.776 96.5177 313.242 96.6058V97.4862C310.208 97.4245 307.315 100.55 306.848 104.494Z" fill="white"/>
<path d="M311.549 112.62H311.399V111.74C314.433 111.854 317.282 108.694 317.749 104.758L318.631 104.864C318.164 109.169 314.98 112.62 311.549 112.62Z" fill="white"/>
<path d="M328.033 67.3502C326.79 72.2012 325.326 81.0844 328.527 84.3154C328.527 84.3154 326.287 89.2368 317.264 89.2368C309.017 89.2368 313.436 84.3154 313.436 84.3154C318.922 83.0301 319.019 79.0331 318.296 75.2474L328.033 67.3502Z" fill="#E58A7B"/>
<path d="M324.064 70.5724L318.305 75.2473C318.483 76.1173 318.587 77.0009 318.614 77.8885C320.298 79.5613 323.676 75.3266 324.02 73.1608C324.195 72.3082 324.21 71.4305 324.064 70.5724Z" fill="#CF6F64"/>
<path d="M308.4 67.2885C308.801 67.9819 309.341 68.5853 309.986 69.0609C310.631 69.5366 311.367 69.8743 312.149 70.053C314.265 70.5196 315.324 68.5739 314.742 66.6194C314.221 64.8587 312.484 62.4904 310.332 62.8954C309.871 62.9902 309.439 63.1938 309.073 63.4893C308.707 63.7848 308.418 64.1635 308.229 64.5937C308.039 65.0239 307.956 65.4931 307.986 65.9619C308.016 66.4308 308.158 66.8857 308.4 67.2885Z" fill="#CF6F64"/>
<path d="M311.902 51.7672C308.603 53.2727 307.439 66.3553 311.584 68.2922C315.73 70.2291 318.146 48.9059 311.902 51.7672Z" fill="#263238"/>
<path d="M329.039 60.0517C328.245 66.6195 328.157 70.4844 324.629 73.8475C323.536 74.9635 322.155 75.7563 320.638 76.1383C319.122 76.5202 317.53 76.4765 316.037 76.012C314.544 75.5475 313.209 74.6802 312.179 73.5059C311.149 72.3316 310.464 70.8959 310.199 69.3575C309.132 63.4588 310.605 53.7129 317.202 51.0981C318.589 50.4878 320.113 50.2587 321.618 50.4345C323.123 50.6104 324.553 51.1847 325.76 52.0981C326.968 53.0115 327.908 54.2306 328.485 55.6291C329.061 57.0276 329.253 58.5546 329.039 60.0517Z" fill="#E58A7B"/>
<path d="M318.199 55.1656C323.085 53.9242 326.675 53.079 325.387 57.1376C323.685 62.5609 321.639 67.808 324.382 68.0457C326.058 68.1954 333.467 65.0612 332.523 61.883C331.703 59.1185 335.169 58.3614 335.786 56.9616C338.071 51.8905 331.535 52.5596 332.699 49.4782C333.863 46.3968 327.407 41.4314 323.879 43.9053C318.137 47.9023 308.285 47.8407 313.463 41.2641C317.176 36.5716 310.552 37.5312 310.552 37.5312C310.552 37.5312 314.556 39.8995 307.818 43.5619C300.691 47.4709 307.227 57.974 318.199 55.1656Z" fill="#263238"/>
<path d="M331.632 67.2885C330.667 68.6818 329.218 69.6672 327.566 70.053C325.387 70.5196 324.55 68.5739 325.37 66.6194C326.102 64.8587 328.113 62.4904 330.194 62.8954C332.276 63.3004 332.752 65.563 331.632 67.2885Z" fill="#E58A7B"/>
<path d="M299.351 143.452C299.351 143.452 293.388 196.715 292.921 216.929C292.445 237.953 313.128 303.551 313.128 303.551L323.712 299.149C323.712 299.149 311.364 239.212 313.128 218.567C314.997 196.055 322.724 143.487 322.724 143.487L299.351 143.452Z" fill="#4CAF4F"/>
<path opacity="0.2" d="M314.168 158.075C309.414 167.918 312.616 187.383 315.191 198.916C316.171 190.773 317.335 181.934 318.437 173.755C318.331 161.183 317.352 151.472 314.168 158.075Z" fill="black"/>
<path d="M323.244 295.663C323.297 295.663 324.497 299.026 324.497 299.026L312.29 304.15L310.367 300.576L323.244 295.663Z" fill="#4CAF4F"/>
<path d="M311.955 143.452C311.955 143.452 316.514 194.109 319.531 213.082C322.847 233.868 335.848 303.094 335.848 303.094H348.011C348.011 303.094 340.725 235.55 339.349 214.966C337.85 192.639 334.869 143.452 334.869 143.452H311.955Z" fill="#4CAF4F"/>
<path d="M348.196 299.933C348.249 299.933 348.602 303.323 348.602 303.323H335.231L334.278 299.431L348.196 299.933Z" fill="#4CAF4F"/>
<path opacity="0.2" d="M343.539 295.918C343.511 295.919 343.485 295.909 343.464 295.891C343.443 295.874 343.429 295.849 343.424 295.822C343.354 295.205 336.783 234.194 335.548 215.706C334.207 195.65 331.509 151.164 331.482 150.715C331.481 150.7 331.483 150.686 331.487 150.672C331.492 150.658 331.5 150.645 331.51 150.634C331.52 150.624 331.532 150.615 331.545 150.609C331.559 150.603 331.573 150.6 331.588 150.6C331.617 150.6 331.645 150.611 331.666 150.631C331.687 150.65 331.7 150.677 331.703 150.706C331.703 151.155 334.428 195.606 335.769 215.697C337.003 234.185 343.574 295.152 343.636 295.813C343.639 295.827 343.638 295.842 343.634 295.856C343.631 295.871 343.624 295.884 343.615 295.896C343.606 295.907 343.594 295.917 343.581 295.924C343.568 295.931 343.554 295.935 343.539 295.936V295.918Z" fill="black"/>
<path d="M318.949 61.883C318.949 62.42 318.614 62.8514 318.261 62.8514C317.908 62.8514 317.652 62.42 317.688 61.883C317.723 61.3459 318.023 60.9146 318.376 60.9146C318.728 60.9146 318.984 61.3547 318.949 61.883Z" fill="#263238"/>
<path d="M312.898 61.883C312.898 62.42 312.554 62.8514 312.21 62.8514C311.866 62.8514 311.602 62.42 311.628 61.883C311.655 61.3459 311.972 60.9146 312.325 60.9146C312.678 60.9146 312.934 61.3547 312.898 61.883Z" fill="#263238"/>
<path d="M314.803 62.1559C314.067 63.7958 313.118 65.332 311.981 66.7251C312.863 67.6055 314.512 67.2006 314.512 67.2006L314.803 62.1559Z" fill="#DF5753"/>
<path d="M314.962 69.4456C314.942 69.4456 314.921 69.4415 314.903 69.4334C314.884 69.4253 314.867 69.4135 314.853 69.3987C314.839 69.3838 314.828 69.3663 314.821 69.3471C314.814 69.3279 314.811 69.3075 314.812 69.2871C314.814 69.2443 314.833 69.204 314.864 69.1745C314.896 69.145 314.937 69.1286 314.98 69.1286C315.654 69.1333 316.321 68.987 316.932 68.7006C317.542 68.4142 318.081 67.9949 318.508 67.4735C318.538 67.4469 318.577 67.4322 318.618 67.4322C318.659 67.4322 318.698 67.4469 318.728 67.4735C318.757 67.503 318.773 67.5425 318.773 67.5835C318.773 67.6246 318.757 67.664 318.728 67.6936C318.271 68.2477 317.696 68.6927 317.044 68.9959C316.393 69.299 315.681 69.4527 314.962 69.4456Z" fill="#263238"/>
<path d="M320.025 60.263C319.983 60.2846 319.936 60.2959 319.888 60.2959C319.841 60.2959 319.794 60.2846 319.751 60.263C319.421 60.0501 319.046 59.9176 318.655 59.8763C318.265 59.835 317.87 59.8861 317.502 60.0253C317.467 60.0431 317.428 60.0537 317.388 60.0563C317.348 60.0588 317.308 60.0534 317.27 60.0403C317.232 60.0271 317.197 60.0066 317.167 59.9798C317.138 59.953 317.114 59.9206 317.097 59.8844C317.064 59.8061 317.063 59.7181 317.094 59.6391C317.126 59.5602 317.187 59.4966 317.264 59.4618C317.725 59.2738 318.225 59.1997 318.721 59.2457C319.217 59.2916 319.695 59.4564 320.113 59.7259C320.147 59.7489 320.176 59.7783 320.198 59.8125C320.22 59.8467 320.236 59.8849 320.243 59.9251C320.25 59.9652 320.25 60.0064 320.241 60.0463C320.232 60.0861 320.216 60.1239 320.192 60.1573C320.148 60.2078 320.09 60.2445 320.025 60.263Z" fill="#263238"/>
<path d="M310.561 58.5023C310.514 58.4909 310.471 58.4665 310.437 58.4318C310.408 58.4031 310.385 58.3689 310.369 58.3311C310.353 58.2933 310.345 58.2527 310.345 58.2117C310.345 58.1707 310.353 58.1302 310.369 58.0924C310.385 58.0546 310.408 58.0203 310.437 57.9916C310.776 57.6132 311.197 57.3177 311.668 57.1284C312.139 56.939 312.648 56.8608 313.154 56.8999C313.195 56.9062 313.233 56.9207 313.268 56.9425C313.303 56.9644 313.333 56.9931 313.356 57.027C313.379 57.0608 313.395 57.099 313.403 57.1393C313.411 57.1795 313.41 57.2209 313.401 57.2609C313.382 57.3424 313.334 57.4142 313.266 57.4629C313.198 57.5115 313.114 57.5336 313.031 57.525C312.63 57.4998 312.229 57.566 311.857 57.7185C311.486 57.8711 311.154 58.106 310.887 58.4054C310.847 58.45 310.795 58.4826 310.738 58.4997C310.68 58.5168 310.619 58.5177 310.561 58.5023Z" fill="#263238"/>
<path d="M343.742 94.484L334.569 92.0453C334.569 92.0453 325.573 114.152 322.389 115.587C318.067 117.559 307.121 124.391 302.464 127.622C302.208 128.723 302.411 131.637 302.993 132.438C310.931 130.994 326.128 125.157 329.303 122.19C336.545 115.42 343.742 94.484 343.742 94.484Z" fill="#E58A7B"/>
<path d="M337.338 312.452C336.891 312.487 336.445 312.366 336.077 312.109C335.964 312.006 335.879 311.876 335.831 311.731C335.783 311.586 335.774 311.431 335.804 311.281C335.809 311.188 335.84 311.097 335.893 311.02C335.946 310.942 336.019 310.881 336.104 310.841C336.845 310.462 338.917 311.774 339.155 311.924C339.182 311.94 339.202 311.964 339.213 311.993C339.224 312.021 339.226 312.053 339.217 312.082C339.21 312.113 339.194 312.141 339.173 312.164C339.151 312.188 339.124 312.205 339.094 312.214C338.519 312.355 337.93 312.435 337.338 312.452ZM336.456 311.079C336.39 311.064 336.32 311.064 336.254 311.079C336.22 311.096 336.192 311.122 336.173 311.155C336.154 311.188 336.145 311.226 336.148 311.264C336.124 311.366 336.128 311.473 336.159 311.573C336.19 311.674 336.247 311.764 336.324 311.836C336.668 312.144 337.533 312.179 338.67 311.959C337.993 311.514 337.23 311.214 336.43 311.079H336.456Z" fill="#4CAF4F"/>
<path d="M339.05 312.214C339.027 312.222 339.002 312.222 338.979 312.214C338.318 311.845 337.074 310.392 337.259 309.653C337.287 309.535 337.353 309.431 337.448 309.356C337.542 309.281 337.659 309.239 337.78 309.239C337.898 309.223 338.018 309.233 338.132 309.268C338.247 309.303 338.352 309.362 338.441 309.441C339.173 310.066 339.217 311.986 339.217 312.082C339.221 312.111 339.216 312.141 339.202 312.166C339.187 312.192 339.165 312.212 339.138 312.223C339.108 312.229 339.077 312.226 339.05 312.214ZM337.868 309.529H337.806C337.603 309.529 337.577 309.644 337.568 309.688C337.462 310.119 338.247 311.22 338.9 311.739C338.897 310.995 338.666 310.27 338.238 309.661C338.136 309.572 338.003 309.525 337.868 309.529Z" fill="#4CAF4F"/>
<path d="M313.921 311.352C313.382 311.54 312.794 311.54 312.254 311.352C312.132 311.285 312.028 311.189 311.952 311.072C311.877 310.955 311.832 310.821 311.822 310.683C311.811 310.596 311.822 310.507 311.855 310.425C311.887 310.344 311.94 310.272 312.007 310.216C312.713 309.582 315.597 310.216 315.924 310.339C315.955 310.347 315.982 310.366 316.001 310.391C316.02 310.417 316.03 310.448 316.029 310.48C316.031 310.513 316.022 310.546 316.005 310.574C315.988 310.602 315.962 310.625 315.932 310.639C315.283 310.931 314.61 311.17 313.921 311.352ZM312.484 310.304C312.383 310.324 312.289 310.37 312.21 310.436C312.182 310.457 312.161 310.486 312.148 310.518C312.136 310.551 312.133 310.587 312.14 310.621C312.146 310.713 312.174 310.803 312.224 310.881C312.273 310.96 312.341 311.025 312.422 311.07C312.889 311.316 313.974 311.123 315.377 310.533C314.432 310.295 313.454 310.218 312.484 310.304Z" fill="#4CAF4F"/>
<path d="M315.906 310.639H315.835C314.953 310.48 313.189 309.468 313.136 308.711C313.136 308.534 313.216 308.288 313.639 308.147C313.782 308.096 313.934 308.075 314.086 308.084C314.237 308.093 314.385 308.132 314.521 308.2C315.474 308.667 315.976 310.357 316.003 310.436C316.009 310.463 316.008 310.491 316.001 310.517C315.993 310.543 315.978 310.567 315.959 310.586C315.946 310.607 315.928 310.625 315.906 310.639ZM313.816 308.411H313.727C313.454 308.508 313.454 308.623 313.454 308.658C313.454 309.116 314.733 309.952 315.624 310.234C315.418 309.527 314.984 308.907 314.389 308.473C314.212 308.383 314.008 308.361 313.816 308.411Z" fill="#4CAF4F"/>
<path d="M303.214 127.103L294.015 131.328L292.948 133.97L296.343 136.25C296.343 136.25 302.694 135.563 304.502 131.487L303.214 127.103Z" fill="#E58A7B"/>
<path d="M303.602 132.587C303.396 130.823 302.813 129.124 301.891 127.604L303.346 126.513C304.441 128.263 305.139 130.231 305.392 132.279L303.602 132.587Z" fill="#263238"/>
<path d="M305.172 128.353C305.366 128.658 305.462 129.016 305.446 129.377C305.429 129.739 305.302 130.086 305.08 130.373C304.859 130.659 304.554 130.871 304.208 130.979C303.862 131.086 303.492 131.085 303.146 130.975C302.801 130.865 302.498 130.651 302.279 130.363C302.06 130.075 301.934 129.726 301.921 129.365C301.907 129.003 302.005 128.646 302.202 128.342C302.398 128.038 302.684 127.802 303.02 127.666C303.397 127.474 303.834 127.439 304.237 127.568C304.64 127.696 304.976 127.978 305.172 128.353Z" fill="#263238"/>
<path d="M287.797 134.744L289.023 135.977L297.278 132.455L294.015 131.328L287.797 134.744Z" fill="#E58A7B"/>
<path opacity="0.2" d="M323.244 295.663C323.297 295.663 324.497 299.026 324.497 299.026L312.29 304.15L310.367 300.576L323.244 295.663Z" fill="black"/>
<path opacity="0.2" d="M348.196 299.933C348.249 299.933 348.602 303.323 348.602 303.323H335.231L334.278 299.431L348.196 299.933Z" fill="black"/>
<path d="M346.132 91.9484C348.558 99.7575 339.076 110.437 339.076 110.437L325.978 105.102C327.531 100.588 329.321 96.1592 331.341 91.834C335.363 83.1797 343.68 84.0689 346.132 91.9484Z" fill="#4CAF4F"/>
<path opacity="0.2" d="M346.132 91.9484C348.558 99.7575 339.076 110.437 339.076 110.437L325.978 105.102C327.531 100.588 329.321 96.1592 331.341 91.834C335.363 83.1797 343.68 84.0689 346.132 91.9484Z" fill="black"/>
<path d="M215.984 13.7078H210.348V14.6146H215.984V13.7078Z" fill="#4CAF4F"/>
<path d="M288.942 49.5984L288.259 64.7083L289.167 64.7491L289.849 49.6392L288.942 49.5984Z" fill="#4CAF4F"/>
<path d="M287.188 17.7752H183.112L173.428 234.106H277.504L287.188 17.7752Z" fill="#4CAF4F"/>
<path opacity="0.56" d="M284.083 20.7509H180.007L170.323 237.082H274.399L284.083 20.7509Z" fill="#FAFAFA"/>
<path opacity="0.07" d="M280.979 23.7178H176.903L167.21 240.049H271.286L280.979 23.7178Z" fill="#4CAF4F"/>
<path d="M269.133 118.07H180.298L179.558 134.621H268.393L269.133 118.07Z" fill="white"/>
<path d="M229.152 105.991H180.836L180.51 113.395H228.826L229.152 105.991Z" fill="#4CAF4F"/>
<path d="M267.131 162.741H178.296L177.555 179.292H266.39L267.131 162.741Z" fill="white"/>
<path opacity="0.47" d="M250.841 201.646H191.103L190.212 221.481H249.95L250.841 201.646Z" fill="#4CAF4F"/>
<path d="M246.845 224.562H187.108C187.082 224.569 187.054 224.569 187.028 224.562C187.019 224.537 187.019 224.509 187.028 224.483L187.91 204.639C187.91 204.626 187.913 204.612 187.918 204.6C187.924 204.587 187.932 204.576 187.942 204.567C187.952 204.558 187.963 204.551 187.976 204.547C187.989 204.543 188.003 204.541 188.016 204.542H247.754C247.765 204.537 247.777 204.534 247.789 204.534C247.801 204.534 247.813 204.537 247.824 204.542C247.831 204.553 247.834 204.565 247.834 204.577C247.834 204.59 247.831 204.602 247.824 204.613L246.96 224.501C246.949 224.521 246.933 224.538 246.912 224.549C246.892 224.56 246.869 224.565 246.845 224.562ZM187.213 224.351H246.74L247.622 204.718H188.095L187.213 224.351Z" fill="white"/>
<path d="M218.718 150.662H178.834L178.508 158.075H218.383L218.718 150.662Z" fill="#4CAF4F"/>
<path d="M249.703 64.6033C249.475 69.4203 247.759 74.0488 244.79 77.8533C242.593 80.727 239.765 83.06 236.523 84.6731C233.282 86.2862 229.714 87.1366 226.092 87.1591C223.165 87.1813 220.265 86.6053 217.57 85.4663C214.874 84.3274 212.441 82.6497 210.42 80.5366C208.399 78.4234 206.833 75.9197 205.818 73.1795C204.803 70.4392 204.36 67.5206 204.518 64.6033C204.828 58.5498 207.444 52.8431 211.829 48.6505C216.215 44.4578 222.039 42.0958 228.112 42.0476C231.041 42.0204 233.944 42.5929 236.643 43.7299C239.341 44.8669 241.778 46.5441 243.801 48.6581C245.825 50.772 247.392 53.2776 248.407 56.0202C249.423 58.7627 249.864 61.684 249.703 64.6033Z" fill="white"/>
<path d="M251.829 46.7666C251.771 48.0474 251.315 49.2784 250.523 50.2882C249.938 51.0514 249.185 51.6711 248.323 52.0998C247.461 52.5286 246.512 52.7551 245.549 52.7621C244.616 52.7677 243.695 52.5452 242.868 52.114C242.041 51.6827 241.332 51.0559 240.804 50.2882C240.104 49.2508 239.757 48.0159 239.816 46.7666C239.901 45.1593 240.597 43.6451 241.763 42.5327C242.928 41.4202 244.474 40.7933 246.087 40.7799C246.865 40.7728 247.636 40.9248 248.353 41.2265C249.069 41.5281 249.717 41.9731 250.255 42.534C250.792 43.0949 251.21 43.7598 251.48 44.4877C251.751 45.2156 251.87 45.9912 251.829 46.7666Z" fill="#4CAF4F"/>
<path d="M189.868 126.345C189.826 127.055 189.516 127.722 189 128.212C188.484 128.702 187.802 128.979 187.09 128.987C186.746 128.991 186.405 128.924 186.088 128.792C185.771 128.659 185.485 128.463 185.247 128.215C185.008 127.968 184.824 127.674 184.704 127.353C184.584 127.031 184.532 126.688 184.55 126.345C184.588 125.635 184.897 124.965 185.413 124.474C185.93 123.983 186.615 123.708 187.328 123.704C187.671 123.701 188.012 123.769 188.328 123.902C188.645 124.035 188.931 124.231 189.168 124.478C189.406 124.726 189.591 125.019 189.711 125.34C189.832 125.661 189.885 126.003 189.868 126.345Z" fill="#263238"/>
<path d="M201.758 126.345C201.717 127.056 201.408 127.724 200.892 128.214C200.376 128.705 199.692 128.981 198.979 128.987C198.636 128.99 198.296 128.922 197.98 128.789C197.664 128.656 197.379 128.46 197.142 128.212C196.905 127.965 196.721 127.671 196.601 127.35C196.482 127.029 196.43 126.687 196.448 126.345C196.486 125.636 196.794 124.968 197.308 124.477C197.823 123.986 198.506 123.71 199.217 123.704C199.561 123.7 199.902 123.767 200.219 123.899C200.536 124.032 200.823 124.228 201.061 124.476C201.299 124.723 201.483 125.017 201.603 125.338C201.723 125.66 201.776 126.003 201.758 126.345Z" fill="#263238"/>
<path d="M213.656 126.345C213.615 127.056 213.306 127.724 212.79 128.214C212.274 128.705 211.59 128.981 210.877 128.987C210.534 128.989 210.194 128.922 209.877 128.789C209.561 128.656 209.275 128.46 209.037 128.213C208.799 127.965 208.614 127.672 208.494 127.351C208.374 127.03 208.32 126.688 208.337 126.345C208.378 125.635 208.687 124.967 209.203 124.477C209.719 123.986 210.403 123.71 211.116 123.704C211.459 123.7 211.8 123.767 212.117 123.899C212.434 124.032 212.721 124.228 212.959 124.476C213.197 124.723 213.382 125.017 213.501 125.338C213.621 125.66 213.674 126.003 213.656 126.345Z" fill="#263238"/>
<path d="M187.866 171.017C187.824 171.726 187.513 172.393 186.998 172.883C186.482 173.373 185.8 173.65 185.088 173.658C184.744 173.661 184.404 173.594 184.087 173.46C183.771 173.327 183.485 173.131 183.247 172.884C183.009 172.637 182.825 172.343 182.704 172.022C182.584 171.701 182.531 171.359 182.548 171.017C182.588 170.307 182.897 169.638 183.413 169.148C183.929 168.657 184.613 168.381 185.326 168.376C185.669 168.373 186.01 168.44 186.326 168.573C186.642 168.706 186.928 168.902 187.166 169.15C187.404 169.397 187.589 169.69 187.709 170.011C187.829 170.332 187.883 170.674 187.866 171.017Z" fill="#263238"/>
<path d="M199.755 171.017C199.715 171.725 199.407 172.392 198.893 172.883C198.379 173.373 197.697 173.65 196.986 173.658C196.642 173.662 196.301 173.596 195.984 173.463C195.667 173.33 195.381 173.134 195.143 172.887C194.905 172.639 194.72 172.345 194.6 172.024C194.48 171.702 194.428 171.359 194.446 171.017C194.486 170.307 194.796 169.638 195.312 169.148C195.828 168.657 196.511 168.381 197.224 168.376C197.567 168.373 197.907 168.44 198.223 168.573C198.539 168.706 198.824 168.903 199.062 169.15C199.299 169.398 199.483 169.691 199.602 170.012C199.721 170.333 199.773 170.675 199.755 171.017Z" fill="#263238"/>
<path d="M211.68 171.017C211.64 171.727 211.33 172.395 210.814 172.886C210.298 173.376 209.614 173.652 208.902 173.658C208.559 173.66 208.219 173.591 207.903 173.458C207.587 173.324 207.302 173.128 207.064 172.881C206.827 172.634 206.642 172.341 206.521 172.021C206.4 171.7 206.346 171.359 206.362 171.017C206.404 170.307 206.714 169.64 207.23 169.15C207.745 168.66 208.428 168.383 209.14 168.376C209.484 168.372 209.825 168.438 210.142 168.571C210.459 168.703 210.745 168.899 210.983 169.147C211.221 169.394 211.406 169.688 211.526 170.01C211.646 170.331 211.698 170.674 211.68 171.017Z" fill="#263238"/>
<path d="M223.552 171.017C223.509 171.726 223.199 172.393 222.684 172.883C222.168 173.373 221.485 173.65 220.773 173.658C220.43 173.659 220.091 173.591 219.775 173.458C219.459 173.324 219.174 173.128 218.936 172.881C218.698 172.634 218.514 172.341 218.393 172.021C218.272 171.7 218.218 171.359 218.233 171.017C218.276 170.307 218.586 169.64 219.102 169.15C219.617 168.66 220.3 168.383 221.012 168.376C221.355 168.373 221.695 168.44 222.012 168.573C222.328 168.706 222.614 168.902 222.852 169.15C223.09 169.397 223.275 169.69 223.395 170.011C223.515 170.332 223.569 170.674 223.552 171.017Z" fill="#263238"/>
<path d="M235.494 171.017C235.452 171.726 235.141 172.393 234.626 172.883C234.11 173.373 233.428 173.65 232.716 173.658C232.372 173.662 232.031 173.596 231.714 173.463C231.397 173.33 231.11 173.134 230.872 172.887C230.634 172.639 230.45 172.345 230.33 172.024C230.21 171.702 230.157 171.359 230.176 171.017C230.216 170.307 230.525 169.638 231.042 169.148C231.558 168.657 232.241 168.381 232.954 168.376C233.297 168.373 233.638 168.44 233.954 168.573C234.271 168.706 234.556 168.902 234.794 169.15C235.032 169.397 235.217 169.69 235.337 170.011C235.457 170.332 235.511 170.674 235.494 171.017Z" fill="#263238"/>
<path d="M233.689 63.4286C237.381 59.8251 237.576 54.0491 234.126 50.5276C230.676 47.006 224.887 47.0725 221.195 50.676C217.504 54.2795 217.308 60.0555 220.758 63.5771C224.208 67.0986 229.997 67.0321 233.689 63.4286Z" fill="#4CAF4F"/>
<path d="M244.79 77.8533C242.593 80.7271 239.765 83.06 236.523 84.6732C233.282 86.2863 229.714 87.1367 226.092 87.1591C222.58 87.1889 219.114 86.3556 216.001 84.7327C212.888 83.1098 210.223 80.7473 208.24 77.8533C212.527 73.5922 219.309 70.8102 226.824 70.8102C234.339 70.8102 240.883 73.5922 244.79 77.8533Z" fill="#4CAF4F"/>
<path opacity="0.1" d="M233.689 63.4286C237.381 59.8251 237.576 54.0491 234.126 50.5276C230.676 47.006 224.887 47.0725 221.195 50.676C217.504 54.2795 217.308 60.0555 220.758 63.5771C224.208 67.0986 229.997 67.0321 233.689 63.4286Z" fill="white"/>
<path opacity="0.1" d="M244.79 77.8533C242.593 80.7271 239.765 83.06 236.523 84.6732C233.282 86.2863 229.714 87.1367 226.092 87.1591C222.58 87.1889 219.114 86.3556 216.001 84.7327C212.888 83.1098 210.223 80.7473 208.24 77.8533C212.527 73.5922 219.309 70.8102 226.824 70.8102C234.339 70.8102 240.883 73.5922 244.79 77.8533Z" fill="white"/>
<path d="M115.022 138.609C114.184 140.441 113.302 142.457 112.534 144.411C111.767 146.366 110.982 148.382 110.303 150.389C108.916 154.345 107.86 158.409 107.145 162.539L106.951 163.833C106.933 164.055 106.954 164.278 107.013 164.493C107.221 165.223 107.549 165.913 107.983 166.536C109.116 168.147 110.43 169.624 111.899 170.938C113.449 172.376 115.074 173.731 116.768 174.996C118.461 176.299 120.243 177.567 121.998 178.764L120.349 181.854C116.158 180.032 112.18 177.755 108.486 175.067C106.515 173.632 104.737 171.951 103.194 170.066C102.279 168.944 101.566 167.672 101.086 166.307C100.807 165.454 100.664 164.563 100.663 163.665C100.663 163.454 100.663 163.146 100.663 162.996V162.565L100.751 161.685C101.257 157.098 102.223 152.573 103.635 148.179C104.323 146.014 105.055 143.857 105.893 141.752C106.731 139.648 107.595 137.588 108.662 135.449L115.022 138.609Z" fill="#E58A7B"/>
<path d="M120.755 178.218L126.99 175.067L125.376 181.898C125.376 181.898 121.099 183.096 119.114 181.018L120.755 178.218Z" fill="#E58A7B"/>
<path d="M132.697 176.185L131.039 181.837L125.376 181.898L126.99 175.067L132.697 176.185Z" fill="#E58A7B"/>
<path d="M141.499 105.647C141.833 106.867 142.297 108.048 142.884 109.169C142.713 109.363 142.492 109.507 142.245 109.586C141.998 109.665 141.734 109.676 141.482 109.618L141.499 105.647Z" fill="#DF5753"/>
<path d="M141.314 105.7C141.679 105.7 141.976 105.247 141.976 104.688C141.976 104.129 141.679 103.675 141.314 103.675C140.949 103.675 140.653 104.129 140.653 104.688C140.653 105.247 140.949 105.7 141.314 105.7Z" fill="#263238"/>
<path d="M141.12 103.71L142.461 103.332C142.461 103.332 141.808 104.371 141.12 103.71Z" fill="#263238"/>
<path d="M124.274 112.109C125.076 116.203 125.879 123.713 123.004 126.451C123.004 126.451 124.133 130.607 131.762 130.607C140.15 130.607 135.766 126.451 135.766 126.451C131.189 125.359 131.303 121.97 132.106 118.783L124.274 112.109Z" fill="#E58A7B"/>
<path d="M122.042 102.777C122.466 109.618 122.501 112.523 125.958 116.036C131.171 121.318 139.497 119.311 141.129 112.515C142.602 106.352 141.667 96.2096 134.955 93.4892C133.481 92.8834 131.878 92.6627 130.295 92.8481C128.713 93.0335 127.204 93.6188 125.911 94.5487C124.618 95.4786 123.584 96.7223 122.907 98.1622C122.23 99.6021 121.933 101.191 122.042 102.777Z" fill="#E58A7B"/>
<path d="M122.721 95.0826C119.282 96.3328 114.695 95.3996 116.495 105.991C118.4 117.207 115.471 120.896 115.471 120.896C115.471 120.896 128.516 123.669 141.834 120.729C141.834 120.729 137.768 113.633 138.906 108.403C140.361 101.8 139.215 99.3614 139.215 99.3614C139.215 99.3614 127.555 93.3219 122.721 95.0826Z" fill="#263238"/>
<path d="M137.274 106.343C137.278 107.644 137.651 108.917 138.351 110.014C139.285 111.44 140.388 110.895 140.661 109.38C140.908 108.051 140.723 105.7 139.532 104.785C138.342 103.869 137.292 104.767 137.274 106.343Z" fill="#E58A7B"/>
<path d="M119.732 96.236C118.744 93.4627 123.454 89.1928 133.42 90.9536C143.387 92.7144 143.819 100.999 143.819 100.999L141.808 98.6042L141.896 101.122L131.656 103.085L119.732 96.236Z" fill="#263238"/>
<path d="M120.578 126.918C120.519 126.516 120.62 126.107 120.859 125.778C121.098 125.449 121.456 125.226 121.857 125.157C124.962 124.646 132.018 123.608 135.563 124.101C138.209 124.47 138.897 126.002 139.012 127.261C139.03 127.482 139 127.703 138.925 127.911C138.85 128.12 138.732 128.309 138.577 128.468C138.422 128.626 138.236 128.75 138.029 128.83C137.823 128.911 137.602 128.946 137.38 128.934L122.051 128.247C121.69 128.229 121.346 128.087 121.077 127.844C120.809 127.602 120.633 127.275 120.578 126.918Z" fill="#4CAF4F"/>
<path opacity="0.6" d="M120.578 126.918C120.519 126.516 120.62 126.107 120.859 125.778C121.098 125.449 121.456 125.226 121.857 125.157C124.962 124.646 132.018 123.608 135.563 124.101C138.209 124.47 138.897 126.002 139.012 127.261C139.03 127.482 139 127.703 138.925 127.911C138.85 128.12 138.732 128.309 138.577 128.468C138.422 128.626 138.236 128.75 138.029 128.83C137.823 128.911 137.602 128.946 137.38 128.934L122.051 128.247C121.69 128.229 121.346 128.087 121.077 127.844C120.809 127.602 120.633 127.275 120.578 126.918Z" fill="black"/>
<path d="M129.442 280.723L135.131 284.667L144.648 271.787L138.959 267.851L129.442 280.723Z" fill="#E58A7B"/>
<path d="M116.177 280.467L122.183 283.883L130.607 270.264L124.6 266.848L116.177 280.467Z" fill="#E58A7B"/>
<path d="M144.639 271.787L139.735 278.425L134.046 274.49L138.95 267.851L144.639 271.787Z" fill="#CF6F64"/>
<path d="M124.591 266.848L130.607 270.273L126.267 277.289L120.252 273.865L124.591 266.848Z" fill="#CF6F64"/>
<path d="M134.24 169.916C134.24 169.916 156.449 197.851 152.277 224.571C148.917 246.15 129.425 275.37 129.425 275.37L120.261 270.827C126.72 257.908 132.232 244.537 136.754 230.822C138.149 226.564 138.556 222.045 137.944 217.607C137.333 213.169 135.72 208.927 133.226 205.202C121.972 188.801 103.944 198.564 116.071 169.916H134.24Z" fill="#4CAF4F"/>
<path opacity="0.6" d="M134.24 169.916C134.24 169.916 156.449 197.851 152.277 224.571C148.917 246.15 129.425 275.37 129.425 275.37L120.261 270.827C126.72 257.908 132.232 244.537 136.754 230.822C138.149 226.564 138.556 222.045 137.944 217.607C137.333 213.169 135.72 208.927 133.226 205.202C121.972 188.801 103.944 198.564 116.071 169.916H134.24Z" fill="black"/>
<path opacity="0.4" d="M145.133 187.859L141.905 184.654C141.905 184.909 148.158 223.444 149.914 234.273C150.949 231.11 151.743 227.872 152.286 224.589C154.35 211.48 150.037 198.089 145.133 187.859Z" fill="black"/>
<path d="M144.154 169.916C144.154 169.916 170.896 205.026 171.655 226.077C172.281 243.685 142.549 277.8 142.549 277.8L133.905 272.218C133.905 272.218 151.307 247.99 155.691 228.198C153.997 208.583 118.188 169.916 118.188 169.916H144.154Z" fill="#4CAF4F"/>
<path opacity="0.6" d="M144.154 169.916C144.154 169.916 170.896 205.026 171.655 226.077C172.281 243.685 142.549 277.8 142.549 277.8L133.905 272.218C133.905 272.218 151.307 247.99 155.691 228.198C153.997 208.583 118.188 169.916 118.188 169.916H144.154Z" fill="black"/>
<path d="M111.07 128.018C108.213 128.696 105.47 139.067 105.47 139.067L116.644 146.515C116.644 146.515 120.367 138.31 119.061 134.718C117.712 130.976 114.66 127.164 111.07 128.018Z" fill="#4CAF4F"/>
<path opacity="0.2" d="M113.258 134.7L112.481 143.742L116.636 146.524C117.783 143.946 118.632 141.247 119.167 138.477L113.258 134.7Z" fill="black"/>
<path d="M147.462 128.221C147.462 128.221 150.76 129.374 144.154 169.907H116.054C116.53 158.462 116.539 151.419 111.07 128.018C115.005 127.209 118.993 126.685 123.004 126.451C127.252 126.147 131.518 126.147 135.766 126.451C141.252 126.953 147.462 128.221 147.462 128.221Z" fill="#4CAF4F"/>
<path d="M150.319 134.7C150.954 136.461 151.625 138.354 152.33 140.176C153.036 141.999 153.706 143.874 154.421 145.723L156.581 151.252L157.128 152.634L157.411 153.321L157.543 153.664C157.543 153.726 157.543 153.726 157.543 153.717C157.382 153.49 157.17 153.303 156.925 153.171C156.576 152.966 156.183 152.848 155.779 152.828C155.443 152.817 155.109 152.88 154.8 153.013C154.394 153.198 154.394 153.277 154.403 153.268C154.476 153.209 154.541 153.141 154.597 153.065C155.085 152.426 155.508 151.738 155.858 151.014C156.273 150.204 156.67 149.341 157.067 148.47C157.843 146.709 158.557 144.887 159.272 143.047C159.986 141.207 160.665 139.349 161.327 137.474L163.338 131.857L166.733 132.737C166.063 136.752 165.199 140.661 164.158 144.64C163.655 146.621 163.064 148.584 162.394 150.565C162.059 151.56 161.688 152.546 161.265 153.558C160.824 154.657 160.28 155.713 159.642 156.71C159.407 157.046 159.148 157.364 158.866 157.661C158.415 158.147 157.869 158.533 157.261 158.797C156.721 159.028 156.136 159.136 155.549 159.114C154.892 159.089 154.252 158.898 153.688 158.559C153.024 158.145 152.473 157.574 152.083 156.895C151.951 156.666 151.836 156.437 151.757 156.27L151.589 155.936L151.254 155.249L150.584 153.884C149.702 152.053 148.82 150.204 148.052 148.347C147.285 146.489 146.474 144.605 145.715 142.712C144.957 140.819 144.278 138.926 143.634 136.884L150.319 134.7Z" fill="#E58A7B"/>
<path d="M147.462 128.221C150.84 129.022 154.641 138.988 154.641 138.988L144.595 147.519C144.595 147.519 138.095 136.655 139.409 133.072C140.776 129.339 143.052 127.173 147.462 128.221Z" fill="#4CAF4F"/>
<path d="M164.934 128.705L168.462 125.764L170.914 129.577L169.106 132.755C169.106 132.755 166.231 135.396 163.69 134.049C163.287 133.144 163.191 132.133 163.415 131.169C163.639 130.205 164.173 129.34 164.934 128.705Z" fill="#E58A7B"/>
<path d="M174.83 125.773L174.565 126.733L168.982 127.666L168.436 125.764L174.83 125.773Z" fill="#E58A7B"/>
<path d="M143.237 278.249L133.164 271.752L134.972 268.617L146.289 275.564L143.237 278.249Z" fill="#4CAF4F"/>
<path d="M126.126 283.426C125.242 283.318 124.393 283.017 123.639 282.545C123.608 282.534 123.581 282.514 123.562 282.487C123.542 282.461 123.532 282.428 123.532 282.396C123.532 282.363 123.542 282.331 123.562 282.304C123.581 282.277 123.608 282.257 123.639 282.246C123.912 282.158 126.285 281.427 126.973 281.991C127.05 282.055 127.109 282.138 127.143 282.233C127.177 282.327 127.185 282.429 127.167 282.528C127.154 282.686 127.102 282.839 127.014 282.971C126.926 283.104 126.805 283.212 126.664 283.285C126.499 283.375 126.314 283.423 126.126 283.426ZM124.141 282.457C125.244 283.021 126.126 283.223 126.549 283.012C126.642 282.961 126.719 282.887 126.775 282.798C126.83 282.708 126.862 282.606 126.867 282.501C126.867 282.36 126.867 282.299 126.787 282.263C126.417 281.964 125.094 282.193 124.124 282.457H124.141Z" fill="#263238"/>
<path d="M123.7 282.607C123.654 282.606 123.61 282.587 123.577 282.554C123.564 282.53 123.557 282.502 123.557 282.475C123.557 282.447 123.564 282.42 123.577 282.395C123.577 282.316 124.15 280.406 125.05 279.974C125.165 279.922 125.29 279.895 125.416 279.895C125.542 279.895 125.667 279.922 125.782 279.974C125.906 280.013 126.013 280.093 126.087 280.2C126.16 280.307 126.196 280.435 126.188 280.564C126.126 281.357 124.512 282.448 123.771 282.633L123.7 282.607ZM125.412 280.203C125.326 280.206 125.242 280.227 125.165 280.265C124.618 280.529 124.168 281.559 123.947 282.184C124.724 281.858 125.791 280.996 125.826 280.511C125.826 280.432 125.826 280.335 125.623 280.247C125.557 280.212 125.486 280.188 125.412 280.177V280.203Z" fill="#263238"/>
<path d="M138.712 287.229C137.715 287.229 136.331 285.952 135.572 285.169C135.553 285.142 135.542 285.11 135.542 285.076C135.542 285.043 135.553 285.011 135.572 284.984C135.59 284.956 135.614 284.932 135.644 284.917C135.673 284.901 135.707 284.894 135.74 284.896C136.093 284.896 139.153 285.354 139.585 286.216C139.631 286.294 139.655 286.382 139.655 286.472C139.655 286.562 139.631 286.65 139.585 286.727C139.521 286.861 139.423 286.977 139.301 287.063C139.179 287.15 139.037 287.204 138.889 287.22L138.712 287.229ZM136.154 285.292C137.266 286.366 138.245 286.965 138.8 286.894C138.898 286.882 138.99 286.845 139.07 286.789C139.15 286.732 139.215 286.656 139.259 286.569C139.279 286.539 139.289 286.503 139.289 286.467C139.289 286.431 139.279 286.396 139.259 286.366C139.03 285.891 137.398 285.486 136.154 285.292Z" fill="#263238"/>
<path d="M136.251 285.248C136.053 285.254 135.855 285.239 135.66 285.204C135.633 285.2 135.608 285.189 135.586 285.172C135.564 285.155 135.547 285.133 135.537 285.107C135.524 285.081 135.517 285.053 135.517 285.023C135.517 284.994 135.524 284.966 135.537 284.94C135.59 284.878 136.781 283.443 137.91 283.346C138.229 283.322 138.546 283.423 138.792 283.628C139.136 283.927 139.118 284.192 139.03 284.359C138.809 284.957 137.283 285.248 136.251 285.248ZM136.022 284.922C137.01 284.975 138.589 284.649 138.792 284.218C138.792 284.218 138.862 284.077 138.633 283.883C138.542 283.804 138.435 283.745 138.32 283.708C138.204 283.672 138.083 283.66 137.962 283.672C137.202 283.884 136.525 284.323 136.022 284.931V284.922Z" fill="#263238"/>
<path d="M123.939 281.656L116.459 279.543C116.33 279.504 116.192 279.514 116.07 279.571C115.947 279.628 115.851 279.728 115.798 279.851L113.275 285.512C113.216 285.657 113.188 285.813 113.194 285.969C113.199 286.126 113.238 286.28 113.307 286.42C113.376 286.561 113.474 286.685 113.595 286.785C113.716 286.885 113.856 286.958 114.007 287C116.653 287.687 117.923 287.88 121.213 288.822C123.242 289.386 126.135 290.434 128.931 291.226C131.727 292.018 132.662 289.298 131.577 288.717C126.673 286.128 126.285 284.315 124.944 282.378C124.704 282.027 124.348 281.772 123.939 281.656Z" fill="#4CAF4F"/>
<path d="M135.775 284.139L129.389 279.737C129.281 279.658 129.148 279.622 129.014 279.635C128.881 279.648 128.757 279.709 128.666 279.807L124.433 284.35C124.329 284.467 124.252 284.605 124.207 284.755C124.161 284.904 124.148 285.062 124.168 285.216C124.188 285.371 124.241 285.52 124.323 285.653C124.405 285.786 124.515 285.9 124.644 285.988C126.893 287.493 128.058 288.1 130.871 290.046C132.635 291.243 136.048 293.902 138.43 295.557C140.811 297.213 142.584 294.941 141.737 294.043C137.945 290.002 137.116 287.467 136.49 285.169C136.381 284.752 136.128 284.387 135.775 284.139Z" fill="#4CAF4F"/>
<path d="M130.598 275.951L119.088 270.237L120.278 267.121L132.573 273.143L130.598 275.951Z" fill="#4CAF4F"/>
<path d="M115.63 168.261L114.66 170.797C114.563 170.99 114.792 171.193 115.119 171.193H144.295C144.551 171.193 144.763 171.07 144.78 170.911L145.027 168.393C145.027 168.226 144.824 168.076 144.551 168.076H116.089C116.003 168.068 115.917 168.081 115.837 168.113C115.757 168.145 115.686 168.196 115.63 168.261Z" fill="#4CAF4F"/>
<path opacity="0.4" d="M115.63 168.261L114.66 170.797C114.563 170.99 114.792 171.193 115.119 171.193H144.295C144.551 171.193 144.763 171.07 144.78 170.911L145.027 168.393C145.027 168.226 144.824 168.076 144.551 168.076H116.089C116.003 168.068 115.917 168.081 115.837 168.113C115.757 168.145 115.686 168.196 115.63 168.261Z" fill="white"/>
<path d="M120.225 171.439H119.458C119.308 171.439 119.193 171.36 119.202 171.263L119.564 167.997C119.564 167.909 119.705 167.83 119.855 167.83H120.622C120.772 167.83 120.887 167.909 120.878 167.997L120.517 171.263C120.508 171.36 120.375 171.439 120.225 171.439Z" fill="#4CAF4F"/>
<path d="M138.218 171.439H137.46C137.31 171.439 137.195 171.36 137.204 171.263L137.557 167.997C137.557 167.909 137.707 167.83 137.857 167.83H138.615C138.765 167.83 138.889 167.909 138.871 167.997L138.518 171.263C138.474 171.36 138.377 171.439 138.218 171.439Z" fill="#4CAF4F"/>
<g style="mix-blend-mode:multiply">
<path d="M119.555 320.534C132.605 320.534 143.184 319.77 143.184 318.826C143.184 317.883 132.605 317.118 119.555 317.118C106.505 317.118 95.9263 317.883 95.9263 318.826C95.9263 319.77 106.505 320.534 119.555 320.534Z" fill="#F5F5F5"/>
</g>
<path d="M133.949 316.414C129.769 315.199 125.129 313.641 122.325 312.012C122.245 311.959 122.157 311.933 122.078 311.889V292.995H130.536C131.178 292.958 131.781 292.676 132.223 292.209C132.664 291.742 132.909 291.124 132.909 290.482C132.909 289.84 132.664 289.222 132.223 288.755C131.781 288.288 131.178 288.006 130.536 287.968H122.122V201.848H117.041V287.968H108.636C108.293 287.948 107.949 287.998 107.626 288.115C107.303 288.232 107.007 288.414 106.757 288.65C106.506 288.885 106.307 289.169 106.171 289.484C106.035 289.799 105.964 290.139 105.964 290.482C105.964 290.825 106.035 291.165 106.171 291.48C106.307 291.795 106.506 292.079 106.757 292.314C107.007 292.55 107.303 292.731 107.626 292.849C107.949 292.966 108.293 293.016 108.636 292.995H117.041V311.862C116.962 311.862 116.883 311.933 116.803 311.986C113.954 313.641 109.35 315.199 105.17 316.388C104.887 316.473 104.645 316.656 104.486 316.904C104.327 317.153 104.263 317.449 104.305 317.741C104.346 318.033 104.491 318.3 104.713 318.494C104.934 318.688 105.219 318.797 105.514 318.8H133.605C133.887 318.781 134.154 318.666 134.361 318.474C134.568 318.282 134.703 318.025 134.744 317.746C134.784 317.467 134.727 317.182 134.582 316.94C134.438 316.697 134.214 316.512 133.949 316.414Z" fill="#E0E0E0"/>
<path d="M135.246 193.079H103.882C101.359 193.079 99.3132 195.121 99.3132 197.64V206.946C99.3132 209.464 101.359 211.506 103.882 211.506H135.246C137.769 211.506 139.815 209.464 139.815 206.946V197.64C139.815 195.121 137.769 193.079 135.246 193.079Z" fill="#4CAF4F"/>
<path d="M103.591 211.515V213.117C103.591 214.438 105.029 215.512 106.793 215.512H132.371C134.135 215.512 135.572 214.438 135.572 213.117V211.515H103.591Z" fill="#4CAF4F"/>
<path opacity="0.3" d="M103.591 211.515V213.117C103.591 214.438 105.029 215.512 106.793 215.512H132.371C134.135 215.512 135.572 214.438 135.572 213.117V211.515H103.591Z" fill="white"/>
</svg>
